
<svg xmlns="http://www.w3.org/2000/svg" viewBox="0 0 780 780" id="calendar-christmas">
    <path fill="#fff" d="M25.1 218.6v468c0 27.6 22.4 50 50 50h637.7c27.6 0 50-22.4 50-50v-468H25.1z">
    
</path>
    <path fill="#9ffdff" d="M95.1 268.6c-11 0-20 9-20 20v448h637.7c27.6 0 50-22.4 50-50v-418H95.1z">
    
</path>
    <path fill="none" stroke="#000" stroke-linecap="round" stroke-linejoin="round" stroke-miterlimit="10" stroke-width="20" d="M25.1 218.6v468c0 27.6 22.4 50 50 50h637.7c27.6 0 50-22.4 50-50v-468H25.1h0z">
    
</path>
    <path fill="#ff6498" d="M712.8 106.2H75.1c-27.6 0-50 22.4-50 50v62.4h737.7v-62.4c0-27.6-22.4-50-50-50z">
    
</path>
    <path fill="#ff0b5c" d="M75.1 206.2v12.4h687.7v-62.4H125.1c-27.6 0-50 22.4-50 50z">
    
</path>
    <path fill="none" stroke="#000" stroke-linecap="round" stroke-linejoin="round" stroke-miterlimit="10" stroke-width="20" d="M712.8 106.2H75.1c-27.6 0-50 22.4-50 50v62.4h737.7v-62.4c0-27.6-22.4-50-50-50z">
    
</path>
    
    <path fill="#ffaf1c" stroke="#000" stroke-linecap="round" stroke-linejoin="round" stroke-miterlimit="10" stroke-width="20" d="M623.2 603.7c-5.1 1.8-10.3 2.6-15.4 2.5-4.6-.1-9.2-.9-13.8-2.5l4.5-47.7.1-.1 19.9-.2 4.7 48z">
    
</path>
    <path fill="#9ffdff" d="m689.5 564.4-69.6-120.5-7.9-13.7c-1.5-2.6-5.3-2.6-6.9 0l-7.9 13.7-69.6 120.5c-1.5 2.6.4 5.9 3.4 5.9h155c3.1.1 5-3.2 3.5-5.9z">
    
</path>
    <path fill="#0077a0" d="m689.5 564.4-63.6-110.1-67 116H686c3.1.1 5-3.2 3.5-5.9z">
    
</path>
    <path fill="none" stroke="#000" stroke-linecap="round" stroke-linejoin="round" stroke-miterlimit="10" stroke-width="20" d="m605.1 430.3-77.4 134.1c-1.5 2.6.4 5.9 3.4 5.9H686c3 0 5-3.3 3.4-5.9L612 430.3c-1.5-2.7-5.3-2.7-6.9 0z">
    
</path>
    <path fill="#9ffdff" d="M671.3 499 612 396.3c-1.5-2.6-5.3-2.6-6.9 0L545.9 499c-1.5 2.6.4 5.9 3.4 5.9h118.6c3 0 4.9-3.3 3.4-5.9z">
    
</path>
    <path fill="#0077a0" d="m671.3 499-45.6-78.9-49 84.9h91.1c3.1-.1 5-3.4 3.5-6z">
    
</path>
    <path fill="none" stroke="#000" stroke-linecap="round" stroke-linejoin="round" stroke-miterlimit="10" stroke-width="20" d="M605.1 396.3 545.9 499c-1.5 2.6.4 5.9 3.4 5.9h118.6c3 0 5-3.3 3.4-5.9L612 396.3c-1.5-2.7-5.3-2.7-6.9 0z">
    
</path>
    <path fill="#9ffdff" d="M651.4 432.1 612 364c-1.5-2.6-5.3-2.6-6.9 0l-39.3 68.2c-1.5 2.6.4 5.9 3.4 5.9h78.7c3.1 0 5-3.3 3.5-6z">
    
</path>
    <path fill="#0077a0" d="m651.4 432.1-26.1-45.2-29.6 51.2h52.2c3.1 0 5-3.3 3.5-6z">
    
</path>
    <path fill="none" stroke="#000" stroke-linecap="round" stroke-linejoin="round" stroke-miterlimit="10" stroke-width="20" d="m605.1 364-39.3 68.2c-1.5 2.6.4 5.9 3.4 5.9h78.7c3 0 5-3.3 3.4-5.9L612 364c-1.5-2.7-5.3-2.7-6.9 0z">
    
</path>
</svg>